<svg width="48" height="48" viewBox="0 0 48 48" fill="none" xmlns="http://www.w3.org/2000/svg">
<path d="M24.8225 28.0918C24.5212 28.0693 24.2198 28.0257 23.9185 28.0257C18.9922 28.0209 14.0644 28.0241 9.13811 28.0225C8.06648 28.0225 8.01492 27.9709 8.01331 26.9306C8.01169 24.8854 8.03426 22.8403 8.00041 20.7951C7.98913 20.1677 8.20668 19.8919 8.80131 19.6935C15.7838 17.3806 22.7582 15.0403 29.7343 12.7032C29.9921 12.6161 30.2354 12.4887 30.4852 12.379C30.4739 12.2935 30.4611 12.2081 30.4497 12.1226C30.1581 12.0919 29.8648 12.0338 29.5731 12.0338C22.7679 12.029 15.9627 12.0306 9.15745 12.029C8.39684 12.029 8.01599 11.6538 8.01492 10.9032C8.01492 8.94031 8.03909 6.9758 8.00203 5.01291C7.98591 4.29194 8.17929 3.99839 8.95924 4.00001C18.9761 4.02097 28.9946 4.02097 39.0115 4.00001C39.7866 4.00001 40.0009 4.30646 39.9929 5.02258C39.9671 7.04031 39.9542 9.05805 39.9993 11.0758C40.0154 11.8048 39.7544 12.1387 39.0695 12.3661C32.1821 14.6403 25.3044 16.9435 18.4266 19.2435C18.0946 19.3548 17.7788 19.5096 17.4565 19.6451C17.4726 19.7225 17.4871 19.8016 17.5032 19.8789C17.8094 19.8951 18.1172 19.9241 18.4234 19.9241C22.5617 19.9274 26.6982 19.9241 30.8365 19.9274C31.892 19.9274 32.0081 20.0451 32.0081 21.0951C32.0097 23.1128 31.9855 25.1306 32.0226 27.1483C32.0338 27.7967 31.7905 28.1225 31.2136 28.3789C26.1278 30.6467 21.0517 32.9402 15.9756 35.2289C15.7258 35.3418 15.4954 35.4918 15.2552 35.6241C15.2714 35.7031 15.2891 35.7821 15.3052 35.8611C15.5517 35.8854 15.8031 35.9483 16.0449 35.9257C16.7765 35.8547 17.0794 36.1369 17.0665 36.8983C17.0343 38.9434 17.0392 40.9886 17.0649 43.0337C17.073 43.737 16.8007 44.0079 16.0996 43.9998C13.705 43.9773 11.3088 43.9821 8.91412 43.9966C8.25664 44.0015 7.99719 43.7482 8.00686 43.0725C8.03587 40.9725 8.04392 38.8725 8.00203 36.7741C7.98913 36.1192 8.22602 35.8192 8.80776 35.5611C13.9258 33.2983 19.0309 31.0048 24.1393 28.716C24.3922 28.6031 24.6307 28.4564 24.8757 28.3257L24.829 28.0903L24.8225 28.0918Z" fill="#B5FC63"/>
</svg>
