<svg width="80" height="20" viewBox="0 0 80 20" fill="none" xmlns="http://www.w3.org/2000/svg">
<path d="M8.61071 12.0459C8.45647 12.0346 8.30222 12.0129 8.14798 12.0129C5.62644 12.0104 3.10408 12.012 0.582549 12.0112C0.0340308 12.0112 0.0076359 11.9854 0.00681106 11.4653C0.00598622 10.4427 0.017534 9.42012 0.000212348 8.39755C-0.00556153 8.08384 0.105792 7.94593 0.410158 7.84674C3.98419 6.6903 7.55409 5.52014 11.1248 4.3516C11.2568 4.30805 11.3813 4.24434 11.5092 4.1895C11.5034 4.14676 11.4968 4.10402 11.4911 4.06128C11.3418 4.04595 11.1916 4.01692 11.0423 4.01692C7.55904 4.0145 4.07574 4.01531 0.592447 4.0145C0.203123 4.0145 0.0081858 3.82687 0.0076359 3.4516C0.0076359 2.47015 0.0200085 1.4879 0.00103719 0.506453C-0.00721121 0.14597 0.0917695 -0.000803144 0.490992 3.30377e-06C5.61819 0.0104871 10.7462 0.0104871 15.8734 3.30377e-06C16.2702 3.30377e-06 16.3799 0.153228 16.3758 0.511291C16.3626 1.52016 16.356 2.52902 16.3791 3.53789C16.3873 3.9024 16.2537 4.06934 15.9031 4.18305C12.3778 5.32014 8.85734 6.47175 5.33692 7.62174C5.16701 7.67739 5.00534 7.75481 4.84037 7.82255C4.84862 7.86126 4.85604 7.90077 4.86429 7.93948C5.02101 7.94755 5.17855 7.96206 5.33527 7.96206C7.45346 7.96368 9.57083 7.96206 11.689 7.96368C12.2293 7.96368 12.2887 8.02255 12.2887 8.54754C12.2895 9.55641 12.2771 10.5653 12.2961 11.5741C12.3019 11.8983 12.1773 12.0612 11.882 12.1895C9.27883 13.3233 6.68059 14.4701 4.08234 15.6144C3.95449 15.6709 3.83654 15.7459 3.71364 15.812C3.72189 15.8515 3.73096 15.8911 3.73921 15.9306C3.86541 15.9427 3.99409 15.9741 4.11781 15.9628C4.49229 15.9274 4.64736 16.0685 4.64076 16.4491C4.62426 17.4717 4.62674 18.4943 4.63993 19.5168C4.64406 19.8685 4.50466 20.0039 4.14586 19.9999C2.92014 19.9886 1.69361 19.991 0.467896 19.9983C0.131362 20.0007 -0.00143733 19.8741 0.00351171 19.5362C0.0183588 18.4862 0.022483 17.4362 0.00103719 16.387C-0.00556153 16.0596 0.11569 15.9096 0.413457 15.7806C3.03315 14.6491 5.64624 13.5024 8.26098 12.358C8.39048 12.3016 8.51256 12.2282 8.63793 12.1629L8.61401 12.0451L8.61071 12.0459Z" fill="black"/>
<path d="M70.8589 10.6209H67.9662C67.934 9.66044 68.1979 8.80399 68.7324 8.03222C69.4245 7.03223 70.4069 6.40401 71.5773 6.06288C73.2402 5.5782 74.922 5.54191 76.5981 5.98304C78.6833 6.53142 79.8447 7.95481 79.9635 10.0524C80.0278 11.1935 79.9865 12.3362 79.9915 13.4774C79.9989 15.3435 79.9948 17.2104 79.9915 19.0765C79.9915 19.2515 80.0237 19.4306 79.9445 19.633H77.2184V17.8201C77.0947 17.7967 77.0617 17.858 77.0262 17.908C76.3243 18.9136 75.3477 19.5225 74.1426 19.7927C72.7799 20.0983 71.4247 20.0935 70.1132 19.583C67.4374 18.541 67.1562 15.8991 68.0107 14.1459C68.4256 13.2943 69.1869 12.7766 70.0703 12.4338C71.3596 11.9338 72.7032 11.6298 74.0642 11.3887C74.7925 11.2596 75.5118 11.0895 76.2236 10.8935C76.2706 10.8806 76.3144 10.8556 76.3614 10.8411C77.286 10.5443 77.4221 9.9798 77.0048 9.13706C76.754 8.63141 76.2847 8.34593 75.7436 8.19835C74.7381 7.92335 73.7219 7.90722 72.7214 8.20722C71.6474 8.529 70.9719 9.20319 70.8877 10.3451C70.882 10.4241 70.8721 10.5032 70.8597 10.6225L70.8589 10.6209ZM77.2167 12.487C75.9935 13.1378 74.6878 13.2612 73.4414 13.5887C72.7733 13.7645 72.1217 13.9782 71.5212 14.3217C70.8003 14.7338 70.5215 15.3564 70.6147 16.1483C70.7112 16.9644 71.2193 17.4451 71.9963 17.6636C72.7403 17.8733 73.505 17.837 74.2415 17.6515C75.6644 17.2935 76.655 16.4701 77.0559 15.0386C77.286 14.2161 77.187 13.3878 77.2159 12.487H77.2167Z" fill="black"/>
<path d="M37.6789 19.6459H34.7738V5.96207H37.6624V8.24432C37.8488 8.18061 37.8595 8.03626 37.9181 7.93061C38.7388 6.46368 40.0082 5.69917 41.7165 5.64191C42.8424 5.60401 43.9163 5.78949 44.8525 6.45723C45.8951 7.20158 46.4263 8.24916 46.6779 9.44915C46.8165 10.1112 46.8717 10.7846 46.8717 11.4612C46.8717 14.0032 46.8717 16.5459 46.8717 19.0878C46.8717 19.2612 46.8717 19.4346 46.8717 19.6354H43.9708C43.8858 19.4628 43.9262 19.2838 43.9262 19.112C43.9229 16.5378 43.9254 13.9628 43.9229 11.3887C43.9229 10.8387 43.8413 10.3008 43.6491 9.78141C43.2936 8.8177 42.5685 8.30642 41.5474 8.19835C39.9381 8.02819 38.7644 8.73464 38.1598 10.2032C37.843 10.9733 37.7003 11.7814 37.6921 12.6016C37.6706 14.7572 37.6814 16.9136 37.6789 19.0701C37.6789 19.2451 37.6789 19.4209 37.6789 19.6443V19.6459Z" fill="black"/>
<path d="M21.2951 8.37496H19.2709V5.95804H21.1573C21.3281 5.79756 21.2695 5.64433 21.2728 5.50724C21.2918 4.73708 21.2415 3.96531 21.3479 3.19596C21.3966 2.84354 21.4691 2.49919 21.5896 2.16612C22.0391 0.921773 23.0248 0.323389 24.2901 0.115325C25.2667 -0.0459645 26.2573 0.00242237 27.2834 0.0241965V2.85322C26.8553 2.90886 26.4132 2.86531 25.9728 2.87741C25.7418 2.88386 25.5092 2.86612 25.2807 2.89193C24.6299 2.9637 24.2563 3.32257 24.2258 3.96128C24.1952 4.60159 24.2192 5.24514 24.2192 5.92981H27.2834V8.3669H24.2233V19.6322H21.2951V8.37496Z" fill="black"/>
<path d="M56.3029 16.7983V19.6717C55.1267 19.6717 53.9744 19.7564 52.8436 19.4757C51.4306 19.1249 50.5414 18.091 50.3674 16.6177C50.3088 16.1225 50.2791 15.6265 50.2808 15.1274C50.2882 13.0685 50.2841 11.0096 50.2841 8.95077C50.2841 8.77738 50.2841 8.604 50.2841 8.39351H48.2913V5.96369H50.2841C50.2841 5.5903 50.2841 5.27417 50.2841 4.95804C50.2841 4.36289 50.2882 3.76773 50.2816 3.17257C50.28 2.98467 50.3088 2.83628 50.4961 2.7266C51.3572 2.22177 52.2109 1.70564 53.0687 1.19516C53.0935 1.18064 53.1306 1.18468 53.2057 1.17338V5.93465H56.3038V8.37174H53.3121C53.1776 8.53787 53.2255 8.68787 53.2255 8.82577C53.2222 11.0298 53.223 13.233 53.223 15.437C53.223 15.5015 53.2213 15.5661 53.223 15.6298C53.2502 16.3846 53.6577 16.7846 54.4305 16.7959C55.0385 16.8048 55.6464 16.7975 56.3021 16.7975L56.3029 16.7983Z" fill="black"/>
<path d="M66.5714 5.80481V8.61287C66.121 8.61287 65.6954 8.61851 65.2698 8.61125C64.9217 8.6048 64.5753 8.64029 64.2371 8.70319C63.2299 8.88948 62.6047 9.48948 62.3465 10.4524C62.1791 11.0774 62.1148 11.7137 62.1164 12.3604C62.1222 14.5975 62.1197 16.8338 62.1164 19.0709C62.1164 19.2451 62.151 19.4233 62.0653 19.6298H59.2031V5.97417H62.109V7.97093C62.5321 7.23868 63.0023 6.59755 63.7785 6.2282C64.6495 5.81449 65.5774 5.7532 66.5705 5.80481H66.5714Z" fill="black"/>
<path d="M31.9166 19.6725H29.0032V5.90965H31.9166V19.6733V19.6725Z" fill="black"/>
<path d="M32.0287 0.0209707V2.85483H28.9084V0.0209707H32.0287Z" fill="black"/>
</svg>
