<svg width="121" height="31" viewBox="0 0 121 31" fill="none" xmlns="http://www.w3.org/2000/svg">
<path d="M13.4161 18.6712C13.1847 18.6537 12.9533 18.6199 12.722 18.6199C8.93966 18.6162 5.15613 18.6187 1.37382 18.6174C0.551046 18.6174 0.511454 18.5774 0.510217 17.7712C0.508979 16.1862 0.526301 14.6012 0.500319 13.0162C0.491658 12.5299 0.658688 12.3162 1.11524 12.1624C6.47628 10.37 11.8311 8.55622 17.1872 6.74497C17.3852 6.67747 17.572 6.57873 17.7638 6.49373C17.7551 6.42748 17.7452 6.36123 17.7366 6.29498C17.5126 6.27123 17.2875 6.22623 17.0635 6.22623C11.8386 6.22248 6.61362 6.22373 1.38867 6.22248C0.804684 6.22248 0.512279 5.93164 0.511454 5.34998C0.511454 3.82874 0.530013 2.30624 0.501556 0.785002C0.489183 0.226254 0.637654 -0.00124487 1.23649 5.12084e-06C8.92729 0.016255 16.6193 0.016255 24.3101 5.12084e-06C24.9053 5.12084e-06 25.0698 0.237504 25.0636 0.792502C25.0438 2.35624 25.0339 3.91999 25.0686 5.48373C25.0809 6.04873 24.8805 6.30748 24.3547 6.48373C19.0666 8.24622 13.786 10.0312 8.50539 11.8137C8.25051 11.9 8.00801 12.0199 7.76056 12.1249C7.77293 12.1849 7.78406 12.2462 7.79644 12.3062C8.03152 12.3187 8.26783 12.3412 8.50291 12.3412C11.6802 12.3437 14.8562 12.3412 18.0335 12.3437C18.8439 12.3437 18.933 12.4349 18.933 13.2487C18.9342 14.8124 18.9157 16.3762 18.9441 17.9399C18.9528 18.4424 18.766 18.6949 18.323 18.8937C14.4182 20.6512 10.5209 22.4287 6.62352 24.2024C6.43174 24.2899 6.25481 24.4061 6.07046 24.5086C6.08283 24.5699 6.09644 24.6311 6.10882 24.6924C6.29812 24.7111 6.49113 24.7599 6.67672 24.7424C7.23843 24.6874 7.47104 24.9061 7.46114 25.4961C7.43639 27.0811 7.44011 28.6661 7.4599 30.2511C7.46609 30.7961 7.25699 31.0061 6.71878 30.9999C4.88022 30.9824 3.04041 30.9861 1.20184 30.9974C0.697043 31.0011 0.497844 30.8049 0.505268 30.2811C0.527538 28.6536 0.533725 27.0261 0.501556 25.3999C0.491658 24.8924 0.673535 24.6599 1.12019 24.4599C5.04972 22.7062 8.96936 20.9287 12.8915 19.1549C13.0857 19.0674 13.2688 18.9537 13.4569 18.8524L13.421 18.6699L13.4161 18.6712Z" fill="#B5FC63"/>
<path d="M106.788 16.4624H102.449C102.401 14.9737 102.797 13.6462 103.599 12.4499C104.637 10.9 106.11 9.92621 107.866 9.39746C110.36 8.64621 112.883 8.58996 115.397 9.27371C118.525 10.1237 120.267 12.3299 120.445 15.5812C120.542 17.3499 120.48 19.1212 120.487 20.8899C120.498 23.7824 120.492 26.6761 120.487 29.5686C120.487 29.8399 120.535 30.1174 120.417 30.4311H116.328V27.6211C116.142 27.5849 116.092 27.6799 116.039 27.7574C114.986 29.3161 113.521 30.2599 111.714 30.6786C109.67 31.1524 107.637 31.1449 105.67 30.3536C101.656 28.7386 101.234 24.6436 102.516 21.9262C103.138 20.6062 104.28 19.8037 105.605 19.2724C107.539 18.4974 109.555 18.0262 111.596 17.6524C112.689 17.4524 113.768 17.1887 114.835 16.8849C114.906 16.8649 114.972 16.8262 115.042 16.8037C116.429 16.3437 116.633 15.4687 116.007 14.1624C115.631 13.3787 114.927 12.9362 114.115 12.7074C112.607 12.2812 111.083 12.2562 109.582 12.7212C107.971 13.2199 106.958 14.2649 106.832 16.0349C106.823 16.1574 106.808 16.2799 106.79 16.4649L106.788 16.4624ZM116.325 19.3549C114.49 20.3637 112.532 20.5549 110.662 21.0624C109.66 21.3349 108.683 21.6662 107.782 22.1987C106.7 22.8374 106.282 23.8024 106.422 25.0299C106.567 26.2949 107.329 27.0399 108.494 27.3786C109.61 27.7036 110.757 27.6474 111.862 27.3599C113.997 26.8049 115.483 25.5286 116.084 23.3099C116.429 22.0349 116.281 20.7512 116.324 19.3549H116.325Z" fill="white"/>
<path d="M57.0183 30.4511H52.6607V9.24121H56.9936V12.7787C57.2732 12.6799 57.2893 12.4562 57.3771 12.2924C58.6082 10.0187 60.5123 8.83371 63.0747 8.74496C64.7636 8.68621 66.3745 8.97371 67.7788 10.0087C69.3427 11.1625 70.1395 12.7862 70.5168 14.6462C70.7247 15.6724 70.8076 16.7162 70.8076 17.7649C70.8076 21.7049 70.8076 25.6461 70.8076 29.5861C70.8076 29.8549 70.8076 30.1236 70.8076 30.4349H66.4561C66.3287 30.1674 66.3893 29.8899 66.3893 29.6236C66.3844 25.6336 66.3881 21.6424 66.3844 17.6524C66.3844 16.7999 66.2619 15.9662 65.9736 15.1612C65.4403 13.6674 64.3528 12.8749 62.8211 12.7074C60.4072 12.4437 58.6466 13.5387 57.7396 15.8149C57.2645 17.0087 57.0505 18.2612 57.0381 19.5324C57.0059 22.8736 57.022 26.2161 57.0183 29.5586C57.0183 29.8299 57.0183 30.1024 57.0183 30.4486V30.4511Z" fill="white"/>
<path d="M32.4426 12.9812H29.4064V9.23496H32.236C32.4921 8.98621 32.4043 8.74872 32.4092 8.53622C32.4377 7.34247 32.3622 6.14623 32.5218 4.95373C32.5948 4.40749 32.7037 3.87374 32.8843 3.35749C33.5587 1.42875 35.0372 0.501252 36.9351 0.178754C38.4 -0.071245 39.886 0.00375468 41.4251 0.0375045V4.42248C40.783 4.50873 40.1198 4.44123 39.4591 4.45998C39.1127 4.46998 38.7638 4.44248 38.4211 4.48248C37.4449 4.59373 36.8844 5.14998 36.8386 6.13998C36.7929 7.13247 36.8287 8.12997 36.8287 9.19121H41.4251V12.9687H36.8349V30.4299H32.4426V12.9812Z" fill="white"/>
<path d="M84.9544 26.0374V30.4911C83.1901 30.4911 81.4616 30.6224 79.7653 30.1874C77.6459 29.6436 76.3121 28.0411 76.0511 25.7574C75.9632 24.9899 75.9187 24.2211 75.9212 23.4474C75.9323 20.2562 75.9261 17.0649 75.9261 13.8737C75.9261 13.6049 75.9261 13.3362 75.9261 13.0099H72.9369V9.24371H75.9261C75.9261 8.66496 75.9261 8.17497 75.9261 7.68497C75.9261 6.76247 75.9323 5.83998 75.9224 4.91748C75.9199 4.62623 75.9632 4.39623 76.2441 4.22624C77.5358 3.44374 78.8164 2.64374 80.1031 1.8525C80.1402 1.83 80.1959 1.83625 80.3085 1.81875V9.19871H84.9556V12.9762H80.4681C80.2664 13.2337 80.3382 13.4662 80.3382 13.6799C80.3332 17.0962 80.3345 20.5112 80.3345 23.9274C80.3345 24.0274 80.332 24.1274 80.3345 24.2261C80.3753 25.3961 80.9865 26.0161 82.1458 26.0336C83.0577 26.0474 83.9695 26.0361 84.9532 26.0361L84.9544 26.0374Z" fill="white"/>
<path d="M100.357 8.99746V13.3499C99.6815 13.3499 99.0431 13.3587 98.4046 13.3474C97.8825 13.3374 97.3629 13.3924 96.8556 13.4899C95.3449 13.7787 94.4071 14.7087 94.0198 16.2012C93.7686 17.1699 93.6721 18.1562 93.6746 19.1587C93.6833 22.6262 93.6796 26.0924 93.6746 29.5599C93.6746 29.8299 93.7266 30.1061 93.5979 30.4261H89.3046V9.25996H93.6635V12.3549C94.2982 11.22 95.0034 10.2262 96.1677 9.65371C97.4742 9.01246 98.8661 8.91746 100.356 8.99746H100.357Z" fill="white"/>
<path d="M48.3748 30.4924H44.0048V9.15996H48.3748V30.4936V30.4924Z" fill="white"/>
<path d="M48.5431 0.0325046V4.42498H43.8625V0.0325046H48.5431Z" fill="white"/>
</svg>
